<svg xmlns="http://www.w3.org/2000/svg" id="dlogo" width="200" height="200" viewBox="0 0 500 500">
<circle cx="250" cy="250" r="205" stroke="black" stroke-width="20" class="sw-logo sw-logo-circle" style="fill:none"/>
<path d="M227 187c7 5 15 10 22 15 -16 10-31 20-47 30 2 2 5 3 7 5 16-10 31-20 47-30 7 4 14 9 20 14 -16 10-31 20-46 30 2 2 5 3 8 5 16-10 32-20 48-30 0-11 0-22 0-33 12 0 23 0 35 0 0 22 0 44 0 66 10 1 21 0 31 0 0 10 0 21 0 31 -22 0-44 0-66 0 0-10 0-21 0-31 -19 12-39 25-58 37 -20-13-40-27-60-40 -6 19-20 32-43 34 -14 1-31-1-47 0 0-32 0-64 0-97 21 1 43-3 60 2 14 4 25 16 29 30C187 212 207 199 227 187zM111 224c0 12 0 23 0 35 8 0 15 1 19-3 7-6 9-19 2-27 -4-5-12-6-22-5C111 223 111 223 111 224z" class="sw-logo"/>
<path d="M361 192c12 0 23 0 35 0 0 22 0 44 0 66 10 0 20 0 31 0 0 10 0 21 0 31 -22 0-44 0-66 0 0-32 0-64 0-96C360 193 360 192 361 192z" class="sw-logo"/></svg>